<?xml version="1.0" encoding="UTF-8"?>
<svg height="128px" viewBox="0 0 128 128" width="128px" xmlns="http://www.w3.org/2000/svg" xmlns:xlink="http://www.w3.org/1999/xlink">
    <filter id="a" height="100%" width="100%" x="0%" y="0%">
        <feColorMatrix color-interpolation-filters="sRGB" values="0 0 0 0 1 0 0 0 0 1 0 0 0 0 1 0 0 0 1 0"/>
    </filter>
    <linearGradient id="b" gradientTransform="matrix(0.232143 0 0 0.203947 -12.56689 195.652985)" gradientUnits="userSpaceOnUse" x1="88.595886" x2="571.057373" y1="-449.394012" y2="-449.395172">
        <stop offset="0" stop-color="#3d3846"/>
        <stop offset="0.0384615" stop-color="#555457"/>
        <stop offset="0.0768555" stop-color="#3d3846"/>
        <stop offset="0.923077" stop-color="#3d3846"/>
        <stop offset="0.961538" stop-color="#5c5b5f"/>
        <stop offset="1" stop-color="#3d3846"/>
    </linearGradient>
    <clipPath id="c">
        <path d="m 16 28 h 96 v 88 h -96 z m 0 0"/>
    </clipPath>
    <clipPath id="d">
        <path d="m 16 30 v 84 c 0 1.105469 0.894531 2 2 2 s 2 -0.894531 2 -2 s 0.894531 -2 2 -2 h 4 c 1.105469 0 2 0.894531 2 2 s 0.894531 2 2 2 h 68 c 1.105469 0 2 -0.894531 2 -2 s 0.894531 -2 2 -2 h 4 c 1.105469 0 2 0.894531 2 2 s 0.894531 2 2 2 s 2 -0.894531 2 -2 v -84 c 0 -1.105469 -0.894531 -2 -2 -2 s -2 0.894531 -2 2 v 4 c 0 1.105469 -0.894531 2 -2 2 h -4 c -1.105469 0 -2 -0.894531 -2 -2 v -4 c 0 -1.105469 -0.894531 -2 -2 -2 h -68 c -1.105469 0 -2 0.894531 -2 2 v 4 c 0 1.105469 -0.894531 2 -2 2 h -4 c -1.105469 0 -2 -0.894531 -2 -2 v -4 c 0 -1.105469 -0.894531 -2 -2 -2 s -2 0.894531 -2 2 z m 6 10 h 4 c 1.105469 0 2 0.894531 2 2 v 4 c 0 1.105469 -0.894531 2 -2 2 h -4 c -1.105469 0 -2 -0.894531 -2 -2 v -4 c 0 -1.105469 0.894531 -2 2 -2 z m 80 0 h 4 c 1.105469 0 2 0.894531 2 2 v 4 c 0 1.105469 -0.894531 2 -2 2 h -4 c -1.105469 0 -2 -0.894531 -2 -2 v -4 c 0 -1.105469 0.894531 -2 2 -2 z m -80 12 h 4 c 1.105469 0 2 0.894531 2 2 v 4 c 0 1.105469 -0.894531 2 -2 2 h -4 c -1.105469 0 -2 -0.894531 -2 -2 v -4 c 0 -1.105469 0.894531 -2 2 -2 z m 80 0 h 4 c 1.105469 0 2 0.894531 2 2 v 4 c 0 1.105469 -0.894531 2 -2 2 h -4 c -1.105469 0 -2 -0.894531 -2 -2 v -4 c 0 -1.105469 0.894531 -2 2 -2 z m -80 12 h 4 c 1.105469 0 2 0.894531 2 2 v 4 c 0 1.105469 -0.894531 2 -2 2 h -4 c -1.105469 0 -2 -0.894531 -2 -2 v -4 c 0 -1.105469 0.894531 -2 2 -2 z m 80 0 h 4 c 1.105469 0 2 0.894531 2 2 v 4 c 0 1.105469 -0.894531 2 -2 2 h -4 c -1.105469 0 -2 -0.894531 -2 -2 v -4 c 0 -1.105469 0.894531 -2 2 -2 z m -80 12 h 4 c 1.105469 0 2 0.894531 2 2 v 4 c 0 1.105469 -0.894531 2 -2 2 h -4 c -1.105469 0 -2 -0.894531 -2 -2 v -4 c 0 -1.105469 0.894531 -2 2 -2 z m 80 0 h 4 c 1.105469 0 2 0.894531 2 2 v 4 c 0 1.105469 -0.894531 2 -2 2 h -4 c -1.105469 0 -2 -0.894531 -2 -2 v -4 c 0 -1.105469 0.894531 -2 2 -2 z m -80 12 h 4 c 1.105469 0 2 0.894531 2 2 v 4 c 0 1.105469 -0.894531 2 -2 2 h -4 c -1.105469 0 -2 -0.894531 -2 -2 v -4 c 0 -1.105469 0.894531 -2 2 -2 z m 80 0 h 4 c 1.105469 0 2 0.894531 2 2 v 4 c 0 1.105469 -0.894531 2 -2 2 h -4 c -1.105469 0 -2 -0.894531 -2 -2 v -4 c 0 -1.105469 0.894531 -2 2 -2 z m -80 12 h 4 c 1.105469 0 2 0.894531 2 2 v 4 c 0 1.105469 -0.894531 2 -2 2 h -4 c -1.105469 0 -2 -0.894531 -2 -2 v -4 c 0 -1.105469 0.894531 -2 2 -2 z m 80 0 h 4 c 1.105469 0 2 0.894531 2 2 v 4 c 0 1.105469 -0.894531 2 -2 2 h -4 c -1.105469 0 -2 -0.894531 -2 -2 v -4 c 0 -1.105469 0.894531 -2 2 -2 z m 0 0"/>
    </clipPath>
    <linearGradient id="e" gradientUnits="userSpaceOnUse" x1="54" x2="122" y1="50.000005" y2="152.000005">
        <stop offset="0" stop-color="#1a5fb4"/>
        <stop offset="0.836364" stop-color="#e66100"/>
        <stop offset="1" stop-color="#6d3b30"/>
    </linearGradient>
    <clipPath id="f">
        <path d="m 32 28 h 62 v 40 h -62 z m 0 0"/>
    </clipPath>
    <clipPath id="g">
        <path d="m 16 30 v 84 c 0 1.105469 0.894531 2 2 2 s 2 -0.894531 2 -2 s 0.894531 -2 2 -2 h 4 c 1.105469 0 2 0.894531 2 2 s 0.894531 2 2 2 h 68 c 1.105469 0 2 -0.894531 2 -2 s 0.894531 -2 2 -2 h 4 c 1.105469 0 2 0.894531 2 2 s 0.894531 2 2 2 s 2 -0.894531 2 -2 v -84 c 0 -1.105469 -0.894531 -2 -2 -2 s -2 0.894531 -2 2 v 4 c 0 1.105469 -0.894531 2 -2 2 h -4 c -1.105469 0 -2 -0.894531 -2 -2 v -4 c 0 -1.105469 -0.894531 -2 -2 -2 h -68 c -1.105469 0 -2 0.894531 -2 2 v 4 c 0 1.105469 -0.894531 2 -2 2 h -4 c -1.105469 0 -2 -0.894531 -2 -2 v -4 c 0 -1.105469 -0.894531 -2 -2 -2 s -2 0.894531 -2 2 z m 6 10 h 4 c 1.105469 0 2 0.894531 2 2 v 4 c 0 1.105469 -0.894531 2 -2 2 h -4 c -1.105469 0 -2 -0.894531 -2 -2 v -4 c 0 -1.105469 0.894531 -2 2 -2 z m 80 0 h 4 c 1.105469 0 2 0.894531 2 2 v 4 c 0 1.105469 -0.894531 2 -2 2 h -4 c -1.105469 0 -2 -0.894531 -2 -2 v -4 c 0 -1.105469 0.894531 -2 2 -2 z m -80 12 h 4 c 1.105469 0 2 0.894531 2 2 v 4 c 0 1.105469 -0.894531 2 -2 2 h -4 c -1.105469 0 -2 -0.894531 -2 -2 v -4 c 0 -1.105469 0.894531 -2 2 -2 z m 80 0 h 4 c 1.105469 0 2 0.894531 2 2 v 4 c 0 1.105469 -0.894531 2 -2 2 h -4 c -1.105469 0 -2 -0.894531 -2 -2 v -4 c 0 -1.105469 0.894531 -2 2 -2 z m -80 12 h 4 c 1.105469 0 2 0.894531 2 2 v 4 c 0 1.105469 -0.894531 2 -2 2 h -4 c -1.105469 0 -2 -0.894531 -2 -2 v -4 c 0 -1.105469 0.894531 -2 2 -2 z m 80 0 h 4 c 1.105469 0 2 0.894531 2 2 v 4 c 0 1.105469 -0.894531 2 -2 2 h -4 c -1.105469 0 -2 -0.894531 -2 -2 v -4 c 0 -1.105469 0.894531 -2 2 -2 z m -80 12 h 4 c 1.105469 0 2 0.894531 2 2 v 4 c 0 1.105469 -0.894531 2 -2 2 h -4 c -1.105469 0 -2 -0.894531 -2 -2 v -4 c 0 -1.105469 0.894531 -2 2 -2 z m 80 0 h 4 c 1.105469 0 2 0.894531 2 2 v 4 c 0 1.105469 -0.894531 2 -2 2 h -4 c -1.105469 0 -2 -0.894531 -2 -2 v -4 c 0 -1.105469 0.894531 -2 2 -2 z m -80 12 h 4 c 1.105469 0 2 0.894531 2 2 v 4 c 0 1.105469 -0.894531 2 -2 2 h -4 c -1.105469 0 -2 -0.894531 -2 -2 v -4 c 0 -1.105469 0.894531 -2 2 -2 z m 80 0 h 4 c 1.105469 0 2 0.894531 2 2 v 4 c 0 1.105469 -0.894531 2 -2 2 h -4 c -1.105469 0 -2 -0.894531 -2 -2 v -4 c 0 -1.105469 0.894531 -2 2 -2 z m -80 12 h 4 c 1.105469 0 2 0.894531 2 2 v 4 c 0 1.105469 -0.894531 2 -2 2 h -4 c -1.105469 0 -2 -0.894531 -2 -2 v -4 c 0 -1.105469 0.894531 -2 2 -2 z m 80 0 h 4 c 1.105469 0 2 0.894531 2 2 v 4 c 0 1.105469 -0.894531 2 -2 2 h -4 c -1.105469 0 -2 -0.894531 -2 -2 v -4 c 0 -1.105469 0.894531 -2 2 -2 z m 0 0"/>
    </clipPath>
    <clipPath id="h">
        <path d="m 35.902344 21.410156 h 56.195312 c 2.15625 0 3.902344 1.96875 3.902344 4.394532 v 37.804687 c 0 2.425781 -1.746094 4.390625 -3.902344 4.390625 h -56.195312 c -2.15625 0 -3.902344 -1.964844 -3.902344 -4.390625 v -37.804687 c 0 -2.425782 1.746094 -4.394532 3.902344 -4.394532 z m 0 0"/>
    </clipPath>
    <linearGradient id="i" gradientUnits="userSpaceOnUse">
        <stop offset="0" stop-color="#ffbe6f"/>
        <stop offset="1" stop-color="#9141ac"/>
    </linearGradient>
    <linearGradient id="j" gradientTransform="matrix(1.882353 0 0 1.791855 -41.529415 -76.054303)" x1="68.812492" x2="18.845459" xlink:href="#i" y1="75.929298" y2="49.467926"/>
    <clipPath id="k">
        <path d="m 32 80 h 62 v 36 h -62 z m 0 0"/>
    </clipPath>
    <clipPath id="l">
        <path d="m 16 30 v 84 c 0 1.105469 0.894531 2 2 2 s 2 -0.894531 2 -2 s 0.894531 -2 2 -2 h 4 c 1.105469 0 2 0.894531 2 2 s 0.894531 2 2 2 h 68 c 1.105469 0 2 -0.894531 2 -2 s 0.894531 -2 2 -2 h 4 c 1.105469 0 2 0.894531 2 2 s 0.894531 2 2 2 s 2 -0.894531 2 -2 v -84 c 0 -1.105469 -0.894531 -2 -2 -2 s -2 0.894531 -2 2 v 4 c 0 1.105469 -0.894531 2 -2 2 h -4 c -1.105469 0 -2 -0.894531 -2 -2 v -4 c 0 -1.105469 -0.894531 -2 -2 -2 h -68 c -1.105469 0 -2 0.894531 -2 2 v 4 c 0 1.105469 -0.894531 2 -2 2 h -4 c -1.105469 0 -2 -0.894531 -2 -2 v -4 c 0 -1.105469 -0.894531 -2 -2 -2 s -2 0.894531 -2 2 z m 6 10 h 4 c 1.105469 0 2 0.894531 2 2 v 4 c 0 1.105469 -0.894531 2 -2 2 h -4 c -1.105469 0 -2 -0.894531 -2 -2 v -4 c 0 -1.105469 0.894531 -2 2 -2 z m 80 0 h 4 c 1.105469 0 2 0.894531 2 2 v 4 c 0 1.105469 -0.894531 2 -2 2 h -4 c -1.105469 0 -2 -0.894531 -2 -2 v -4 c 0 -1.105469 0.894531 -2 2 -2 z m -80 12 h 4 c 1.105469 0 2 0.894531 2 2 v 4 c 0 1.105469 -0.894531 2 -2 2 h -4 c -1.105469 0 -2 -0.894531 -2 -2 v -4 c 0 -1.105469 0.894531 -2 2 -2 z m 80 0 h 4 c 1.105469 0 2 0.894531 2 2 v 4 c 0 1.105469 -0.894531 2 -2 2 h -4 c -1.105469 0 -2 -0.894531 -2 -2 v -4 c 0 -1.105469 0.894531 -2 2 -2 z m -80 12 h 4 c 1.105469 0 2 0.894531 2 2 v 4 c 0 1.105469 -0.894531 2 -2 2 h -4 c -1.105469 0 -2 -0.894531 -2 -2 v -4 c 0 -1.105469 0.894531 -2 2 -2 z m 80 0 h 4 c 1.105469 0 2 0.894531 2 2 v 4 c 0 1.105469 -0.894531 2 -2 2 h -4 c -1.105469 0 -2 -0.894531 -2 -2 v -4 c 0 -1.105469 0.894531 -2 2 -2 z m -80 12 h 4 c 1.105469 0 2 0.894531 2 2 v 4 c 0 1.105469 -0.894531 2 -2 2 h -4 c -1.105469 0 -2 -0.894531 -2 -2 v -4 c 0 -1.105469 0.894531 -2 2 -2 z m 80 0 h 4 c 1.105469 0 2 0.894531 2 2 v 4 c 0 1.105469 -0.894531 2 -2 2 h -4 c -1.105469 0 -2 -0.894531 -2 -2 v -4 c 0 -1.105469 0.894531 -2 2 -2 z m -80 12 h 4 c 1.105469 0 2 0.894531 2 2 v 4 c 0 1.105469 -0.894531 2 -2 2 h -4 c -1.105469 0 -2 -0.894531 -2 -2 v -4 c 0 -1.105469 0.894531 -2 2 -2 z m 80 0 h 4 c 1.105469 0 2 0.894531 2 2 v 4 c 0 1.105469 -0.894531 2 -2 2 h -4 c -1.105469 0 -2 -0.894531 -2 -2 v -4 c 0 -1.105469 0.894531 -2 2 -2 z m -80 12 h 4 c 1.105469 0 2 0.894531 2 2 v 4 c 0 1.105469 -0.894531 2 -2 2 h -4 c -1.105469 0 -2 -0.894531 -2 -2 v -4 c 0 -1.105469 0.894531 -2 2 -2 z m 80 0 h 4 c 1.105469 0 2 0.894531 2 2 v 4 c 0 1.105469 -0.894531 2 -2 2 h -4 c -1.105469 0 -2 -0.894531 -2 -2 v -4 c 0 -1.105469 0.894531 -2 2 -2 z m 0 0"/>
    </clipPath>
    <clipPath id="m">
        <path d="m 35.902344 80.554688 h 56.195312 c 2.15625 0 3.902344 1.601562 3.902344 3.574218 v 30.769532 c 0 1.972656 -1.746094 3.570312 -3.902344 3.570312 h -56.195312 c -2.15625 0 -3.902344 -1.597656 -3.902344 -3.570312 v -30.769532 c 0 -1.972656 1.746094 -3.574218 3.902344 -3.574218 z m 0 0"/>
    </clipPath>
    <linearGradient id="n" gradientTransform="matrix(1.882353 0 0 1.458307 -41.529415 1.231566)" x1="68.812492" x2="18.845459" xlink:href="#i" y1="75.929298" y2="49.467926"/>
    <clipPath id="o">
        <path d="m 16 28 h 96 v 88 h -96 z m 0 0"/>
    </clipPath>
    <clipPath id="p">
        <path d="m 16 30 v 84 c 0 1.105469 0.894531 2 2 2 s 2 -0.894531 2 -2 s 0.894531 -2 2 -2 h 4 c 1.105469 0 2 0.894531 2 2 s 0.894531 2 2 2 h 68 c 1.105469 0 2 -0.894531 2 -2 s 0.894531 -2 2 -2 h 4 c 1.105469 0 2 0.894531 2 2 s 0.894531 2 2 2 s 2 -0.894531 2 -2 v -84 c 0 -1.105469 -0.894531 -2 -2 -2 s -2 0.894531 -2 2 v 4 c 0 1.105469 -0.894531 2 -2 2 h -4 c -1.105469 0 -2 -0.894531 -2 -2 v -4 c 0 -1.105469 -0.894531 -2 -2 -2 h -68 c -1.105469 0 -2 0.894531 -2 2 v 4 c 0 1.105469 -0.894531 2 -2 2 h -4 c -1.105469 0 -2 -0.894531 -2 -2 v -4 c 0 -1.105469 -0.894531 -2 -2 -2 s -2 0.894531 -2 2 z m 6 10 h 4 c 1.105469 0 2 0.894531 2 2 v 4 c 0 1.105469 -0.894531 2 -2 2 h -4 c -1.105469 0 -2 -0.894531 -2 -2 v -4 c 0 -1.105469 0.894531 -2 2 -2 z m 80 0 h 4 c 1.105469 0 2 0.894531 2 2 v 4 c 0 1.105469 -0.894531 2 -2 2 h -4 c -1.105469 0 -2 -0.894531 -2 -2 v -4 c 0 -1.105469 0.894531 -2 2 -2 z m -80 12 h 4 c 1.105469 0 2 0.894531 2 2 v 4 c 0 1.105469 -0.894531 2 -2 2 h -4 c -1.105469 0 -2 -0.894531 -2 -2 v -4 c 0 -1.105469 0.894531 -2 2 -2 z m 80 0 h 4 c 1.105469 0 2 0.894531 2 2 v 4 c 0 1.105469 -0.894531 2 -2 2 h -4 c -1.105469 0 -2 -0.894531 -2 -2 v -4 c 0 -1.105469 0.894531 -2 2 -2 z m -80 12 h 4 c 1.105469 0 2 0.894531 2 2 v 4 c 0 1.105469 -0.894531 2 -2 2 h -4 c -1.105469 0 -2 -0.894531 -2 -2 v -4 c 0 -1.105469 0.894531 -2 2 -2 z m 80 0 h 4 c 1.105469 0 2 0.894531 2 2 v 4 c 0 1.105469 -0.894531 2 -2 2 h -4 c -1.105469 0 -2 -0.894531 -2 -2 v -4 c 0 -1.105469 0.894531 -2 2 -2 z m -80 12 h 4 c 1.105469 0 2 0.894531 2 2 v 4 c 0 1.105469 -0.894531 2 -2 2 h -4 c -1.105469 0 -2 -0.894531 -2 -2 v -4 c 0 -1.105469 0.894531 -2 2 -2 z m 80 0 h 4 c 1.105469 0 2 0.894531 2 2 v 4 c 0 1.105469 -0.894531 2 -2 2 h -4 c -1.105469 0 -2 -0.894531 -2 -2 v -4 c 0 -1.105469 0.894531 -2 2 -2 z m -80 12 h 4 c 1.105469 0 2 0.894531 2 2 v 4 c 0 1.105469 -0.894531 2 -2 2 h -4 c -1.105469 0 -2 -0.894531 -2 -2 v -4 c 0 -1.105469 0.894531 -2 2 -2 z m 80 0 h 4 c 1.105469 0 2 0.894531 2 2 v 4 c 0 1.105469 -0.894531 2 -2 2 h -4 c -1.105469 0 -2 -0.894531 -2 -2 v -4 c 0 -1.105469 0.894531 -2 2 -2 z m -80 12 h 4 c 1.105469 0 2 0.894531 2 2 v 4 c 0 1.105469 -0.894531 2 -2 2 h -4 c -1.105469 0 -2 -0.894531 -2 -2 v -4 c 0 -1.105469 0.894531 -2 2 -2 z m 80 0 h 4 c 1.105469 0 2 0.894531 2 2 v 4 c 0 1.105469 -0.894531 2 -2 2 h -4 c -1.105469 0 -2 -0.894531 -2 -2 v -4 c 0 -1.105469 0.894531 -2 2 -2 z m 0 0"/>
    </clipPath>
    <mask id="q">
        <g filter="url(#a)">
            <rect fill-opacity="0.53632" height="153.6" width="153.6" x="-12.8" y="-12.8"/>
        </g>
    </mask>
    <linearGradient id="r" gradientTransform="matrix(1 0 0 1.428572 8 -270.571521)" gradientUnits="userSpaceOnUse" x1="80" x2="80" y1="266" y2="272">
        <stop offset="0"/>
        <stop offset="1" stop-opacity="0"/>
    </linearGradient>
    <clipPath id="s">
        <rect height="152" width="192"/>
    </clipPath>
    <linearGradient id="t" gradientTransform="matrix(0.232143 0 0 0.203947 -8.566628 223.652702)" gradientUnits="userSpaceOnUse" x1="63.468357" x2="548.923462" y1="-591.636719" y2="-591.636719">
        <stop offset="0" stop-color="#241f31"/>
        <stop offset="0.0384615" stop-color="#5e5c64"/>
        <stop offset="0.0768555" stop-color="#241f31"/>
        <stop offset="0.923077" stop-color="#241f31"/>
        <stop offset="0.961538" stop-color="#3d3846"/>
        <stop offset="1" stop-color="#241f31"/>
    </linearGradient>
    <radialGradient id="u" cx="240.12059" cy="426.722107" gradientTransform="matrix(1.487851 0.00028986 0 0.834025 -245.26355 -261.966553)" gradientUnits="userSpaceOnUse" r="55.999866">
        <stop offset="0" stop-color="#807b91"/>
        <stop offset="1" stop-color="#3d3846" stop-opacity="0"/>
    </radialGradient>
    <radialGradient id="v" cx="126.577873" cy="409.842377" gradientTransform="matrix(0.857145 -0.0714288 0.0401335 0.480471 -110.943977 -93.875984)" gradientUnits="userSpaceOnUse" r="55.999866">
        <stop offset="0" stop-color="#5f586f"/>
        <stop offset="1" stop-color="#3d3846" stop-opacity="0"/>
    </radialGradient>
    <radialGradient id="w" cx="148.266251" cy="467.002716" gradientTransform="matrix(0 -0.500001 1.52065 -0.00002529 -642.147743 170.145103)" gradientUnits="userSpaceOnUse" r="55.999866">
        <stop offset="0" stop-color="#4a4850"/>
        <stop offset="1" stop-color="#3d3846"/>
    </radialGradient>
    <linearGradient id="x" gradientTransform="matrix(0.5 0.866025 -0.866025 0.5 343.103059 170.574139)" gradientUnits="userSpaceOnUse" x1="60.999699" x2="67.000298" y1="220" y2="220">
        <stop offset="0" stop-color="#5e5c64"/>
        <stop offset="0.5" stop-color="#9a9996"/>
        <stop offset="1" stop-color="#3d3846"/>
    </linearGradient>
    <linearGradient id="y" gradientTransform="matrix(0.232143 0 0 -0.203947 112.010574 -672.652229)" gradientUnits="userSpaceOnUse" x1="-275.737854" x2="-137.891541" y1="-3690.423828" y2="-3690.423828">
        <stop offset="0" stop-color="#241f31"/>
        <stop offset="0.0384615" stop-color="#5e5c64"/>
        <stop offset="0.375" stop-color="#241f31"/>
        <stop offset="0.562499" stop-color="#241f31"/>
        <stop offset="0.812499" stop-color="#3d3846"/>
        <stop offset="1" stop-color="#241f31"/>
    </linearGradient>
    <linearGradient id="z" gradientUnits="userSpaceOnUse" x1="58.000275" x2="70.000275" y1="55.499572" y2="55.499572">
        <stop offset="0" stop-color="#5e5c64"/>
        <stop offset="0.5" stop-color="#c0bfbc"/>
        <stop offset="1" stop-color="#3d3846"/>
    </linearGradient>
    <linearGradient id="A" gradientUnits="userSpaceOnUse">
        <stop offset="0" stop-color="#77767b"/>
        <stop offset="0.5" stop-color="#c0bfbc"/>
        <stop offset="1" stop-color="#77767b"/>
    </linearGradient>
    <linearGradient id="B" gradientTransform="matrix(1.999977 0 0 -1.999977 -63.998253 -377.994926)" x1="58" x2="70" xlink:href="#A" y1="-211" y2="-211"/>
    <radialGradient id="C" cx="-194.836517" cy="-64.000015" gradientTransform="matrix(0 -0.774696 -0.774696 0 14.419762 -114.438946)" gradientUnits="userSpaceOnUse" r="7.999909">
        <stop offset="0" stop-color="#deddda"/>
        <stop offset="1" stop-color="#77767b"/>
    </radialGradient>
    <linearGradient id="D" gradientTransform="matrix(0.5 0.866025 -0.866025 0.5 343.103059 170.574139)" x1="60.999699" x2="67.000298" xlink:href="#A" y1="220" y2="220"/>
    <path d="m 16 42 h 96 c 4.433594 0 8 3.566406 8 8 v 46 c 0 4.433594 -3.566406 8 -8 8 h -96 c -4.433594 0 -8 -3.566406 -8 -8 v -46 c 0 -4.433594 3.566406 -8 8 -8 z m 0 0" fill="url(#b)"/>
    <path d="m 17.453125 39.1875 h 93.09375 c 5.238281 0 9.453125 3.566406 9.453125 8 v 44 c 0 4.433594 -4.214844 8 -9.453125 8 h -93.09375 c -5.238281 0 -9.453125 -3.566406 -9.453125 -8 v -44 c 0 -4.433594 4.214844 -8 9.453125 -8 z m 0 0" fill="#6b6a70"/>
    <path d="m 17.453125 38 h 93.09375 c 5.238281 0 9.453125 3.566406 9.453125 8 v 44 c 0 4.433594 -4.214844 8 -9.453125 8 h -93.09375 c -5.238281 0 -9.453125 -3.566406 -9.453125 -8 v -44 c 0 -4.433594 4.214844 -8 9.453125 -8 z m 0 0" fill="#151517"/>
    <g clip-path="url(#c)">
        <g clip-path="url(#d)">
            <path d="m 6.996094 27.1875 h 115.507812 v 89.316406 h -115.507812 z m 0 0" fill="url(#e)"/>
        </g>
    </g>
    <g clip-path="url(#f)">
        <g clip-path="url(#g)">
            <g clip-path="url(#h)">
                <path d="m 30 20.707031 h 64 v 46.585938 h -64 z m 0 0" fill="url(#j)"/>
            </g>
        </g>
    </g>
    <g clip-path="url(#k)">
        <g clip-path="url(#l)">
            <g clip-path="url(#m)">
                <path d="m 30 79.980469 h 64 v 37.914062 h -64 z m 0 0" fill="url(#n)"/>
            </g>
        </g>
    </g>
    <g clip-path="url(#o)">
        <g clip-path="url(#p)">
            <g mask="url(#q)">
                <g clip-path="url(#s)" transform="matrix(1 0 0 1 -8 -16)">
                    <path d="m 24 98 h 96 v 20 h -96 z m 0 0" fill="url(#r)"/>
                </g>
            </g>
        </g>
    </g>
    <path d="m 16 58 h 96 c 4.417969 0 8 3.582031 8 8 v 22 c 0 4.417969 -3.582031 8 -8 8 h -96 c -4.417969 0 -8 -3.582031 -8 -8 v -22 c 0 -4.417969 3.582031 -8 8 -8 z m 0 0" fill="url(#t)"/>
    <path d="m 17.453125 38.941406 h 93.09375 c 5.21875 0 9.453125 3.578125 9.453125 8 v 38 c 0 4.417969 -4.234375 8 -9.453125 8 h -93.09375 c -5.21875 0 -9.453125 -3.582031 -9.453125 -8 v -38 c 0 -4.421875 4.234375 -8 9.453125 -8 z m 0 0" fill="url(#u)"/>
    <path d="m 17.453125 38.941406 h 93.09375 c 5.21875 0 9.453125 3.578125 9.453125 8 v 38 c 0 4.417969 -4.234375 8 -9.453125 8 h -93.09375 c -5.21875 0 -9.453125 -3.582031 -9.453125 -8 v -38 c 0 -4.421875 4.234375 -8 9.453125 -8 z m 0 0" fill="url(#v)"/>
    <path d="m 16.707031 38 h 94.585938 c 4.808593 0 8.707031 3.898438 8.707031 8.707031 v 36.585938 c 0 4.808593 -3.898438 8.707031 -8.707031 8.707031 h -94.585938 c -4.808593 0 -8.707031 -3.898438 -8.707031 -8.707031 v -36.585938 c 0 -4.808593 3.898438 -8.707031 8.707031 -8.707031 z m 0 0" fill="url(#w)"/>
    <path d="m 153.401405 353.999763 l 62.351563 -36" fill="none" stroke="url(#x)" stroke-linecap="round" stroke-width="6" transform="matrix(1 0 0 1 -120.577187 -293.999763)"/>
    <path d="m 80 64 c 0 -8.835938 -7.164062 -16 -16 -16 s -16 7.164062 -16 16 s 7.164062 16 16 16 s 16 -7.164062 16 -16 z m 0 0" fill="url(#y)"/>
    <path d="m 64 46 c -8.835938 0 -16 7.164062 -16 16 s 7.164062 16 16 16 s 16 -7.164062 16 -16 s -7.164062 -16 -16 -16 z m 0 0" fill="#5e5c64"/>
    <path d="m 59 43 l -1 2 l 1 2 l -1 2 l 1 2 l -1 2 l 1 2 l -1 2 l 1 2 l -1 2 v 1 c 0 2.144531 1.144531 4.125 3 5.195312 c 1.855469 1.070313 4.144531 1.070313 6 0 c 1.855469 -1.070312 3 -3.050781 3 -5.195312 v -3 l -1 -2 l 1 -2 l -1 -2 l 1 -2 l -1 -2 l 1 -2 l -1 -2 l 1 -2 l -1 -2 z m 0 0" fill="url(#z)"/>
    <path d="m 69 45 s -1.351562 3.65625 -4.910156 4.015625 c -3.5625 0.359375 -5.089844 -2.015625 -5.089844 -2.015625 l -1 2 s 2.09375 2.78125 6.089844 2.550781 c 3.996094 -0.234375 5.785156 -4.511719 5.910156 -4.550781 z m 0 0" fill="#ffffff" fill-opacity="0.38189"/>
    <path d="m 70 47 c -0.125 0.039062 -1.914062 4.316406 -5.910156 4.550781 c -3.996094 0.230469 -6.089844 -2.550781 -6.089844 -2.550781 l 1 2 s 1.527344 2.375 5.089844 2.015625 c 3.558594 -0.359375 4.910156 -4.015625 4.910156 -4.015625 l 0.042969 0.085938 z m 0 0" fill="#241f31" fill-opacity="0.338583"/>
    <g fill="#ffffff" fill-opacity="0.38189">
        <path d="m 69 53 s -1.351562 3.65625 -4.910156 4.015625 c -3.5625 0.359375 -5.089844 -2.015625 -5.089844 -2.015625 l -1 2 s 2.09375 2.78125 6.089844 2.550781 c 3.996094 -0.234375 5.785156 -4.511719 5.910156 -4.550781 z m 0 0"/>
        <path d="m 69 57 s -1.441406 3.65625 -5 4.015625 s -5 -2.015625 -5 -2.015625 l -1 2 s 2.003906 2.78125 6 2.550781 c 3.996094 -0.234375 5.875 -4.511719 6 -4.550781 z m 0 0"/>
        <path d="m 69 49 s -1.351562 3.65625 -4.910156 4.015625 c -3.5625 0.359375 -5.089844 -2.015625 -5.089844 -2.015625 l -1 2 s 2.09375 2.78125 6.089844 2.550781 c 3.996094 -0.234375 5.785156 -4.511719 5.910156 -4.550781 z m 0 0"/>
    </g>
    <path d="m 70 55 c -0.125 0.039062 -1.914062 4.316406 -5.910156 4.550781 s -6.089844 -2.550781 -6.089844 -2.550781 l 1 2 s 1.527344 2.375 5.089844 2.015625 c 3.558594 -0.359375 4.910156 -4.015625 4.910156 -4.015625 l 0.042969 0.085938 z m 0 0" fill="#241f31" fill-opacity="0.338583"/>
    <path d="m 70 51 c -0.125 0.039062 -1.914062 4.316406 -5.910156 4.550781 c -3.996094 0.230469 -6.089844 -2.550781 -6.089844 -2.550781 l 1 2 s 1.527344 2.375 5.089844 2.015625 c 3.558594 -0.359375 4.910156 -4.015625 4.910156 -4.015625 l 0.042969 0.085938 z m 0 0" fill="#241f31" fill-opacity="0.338583"/>
    <path d="m 76 44 c 0 -6.628906 -5.371094 -12 -12 -12 s -12 5.371094 -12 12 s 5.371094 12 12 12 s 12 -5.371094 12 -12 z m 0 0" fill="url(#B)"/>
    <path d="m 64 26 c -6.628906 0 -12 5.371094 -12 12 s 5.371094 12 12 12 s 12 -5.371094 12 -12 s -5.371094 -12 -12 -12 z m 0 0" fill="#deddda"/>
    <path d="m 52.023438 43.40625 c -0.015626 0.199219 -0.019532 0.394531 -0.023438 0.59375 c 0 6.628906 5.371094 12 12 12 s 12 -5.371094 12 -12 c -0.003906 -0.136719 -0.011719 -0.269531 -0.019531 -0.40625 c -0.316407 6.386719 -5.585938 11.402344 -11.980469 11.40625 c -6.464844 -0.007812 -11.757812 -5.132812 -11.976562 -11.59375 z m 0 0" fill="#77767b"/>
    <path d="m 64 32 c -3.3125 0 -6 2.6875 -6 6 s 2.6875 6 6 6 s 6 -2.6875 6 -6 s -2.6875 -6 -6 -6 z m 0 0" fill="url(#C)"/>
    <path d="m 153.401405 353.999763 l 19.585938 -11.308593" fill="#77767b" stroke="url(#D)" stroke-linecap="round" stroke-width="6" transform="matrix(1 0 0 1 -120.577187 -293.999763)"/>
    <path d="m 153.401405 353.999763 l 19.585938 -11.308593" fill="#77767b" stroke="url(#x)" stroke-linecap="round" stroke-width="6" transform="matrix(1 0 0 1 -120.577187 -293.999763)"/>
</svg>
