<?xml version="1.0" encoding="UTF-8"?>
<svg height="16" viewBox="0 0 16 16" width="16" xmlns="http://www.w3.org/2000/svg">
  <g fill="#222222">
    <path d="M 4,0 C 2.338,0 1,1.338 1,3 v 10 c 0,1.662 1.338,3 3,3 h 8 c 1.662,0 3,-1.338 3,-3 V 3 C 15,1.338 13.662,0 12,0 Z m 0,2 h 8 c 0.554,0 1,0.446 1,1 V 7 H 3 V 3 C 3,2.446 3.446,2 4,2 Z M 3,8 h 10 v 5 c 0,0.554 -0.446,1 -1,1 H 4 C 3.446,14 3,13.554 3,13 Z"/>
    <path d="M 11,9 A 0.5,0.5 0 0 0 10.5,9.5 0.5,0.5 0 0 0 11,10 v 1 A 0.5,0.5 0 0 0 10.5,11.5 0.5,0.5 0 0 0 11,12 0.5,0.5 0 0 0 11.06445,11.9961 C 11.587736,11.962623 12,11.532023 12,11 V 10 C 12,9.4679793 11.587733,9.0373803 11.064453,9.0039062 A 0.5,0.5 0 0 0 11,9 Z"/>
    <path d="m 11,3.0000042 a 0.5,0.5 0 0 0 -0.5,0.5 0.5,0.5 0 0 0 0.5,0.5 v 1 a 0.5,0.5 0 0 0 -0.5,0.5 0.5,0.5 0 0 0 0.5,0.5 0.5,0.5 0 0 0 0.06445,-0.0039 C 11.587736,5.9626272 12,5.5320272 12,5.0000042 v -1 C 12,3.4679835 11.587733,3.0373845 11.064453,3.0039104 A 0.5,0.5 0 0 0 11,3.0000042 Z"/>
  </g>
</svg>